<svg id="Capa_1" enable-background="new 0 0 511.998 511.998" height="512" viewBox="0 0 511.998 511.998" width="512" xmlns="http://www.w3.org/2000/svg"><g><g><path d="m377.479 257.498c-2.091-5.023-8.021-7.509-13.06-5.41-5.019 2.091-7.51 8.022-5.41 13.06 2.09 5.02 8.024 7.508 13.06 5.41 5.021-2.093 7.511-8.022 5.41-13.06-.25-.601.25.599 0 0z"/><path d="m388.782 52.945h-45.522c-1.495-10.504-6.324-20.246-13.993-27.994-9.478-9.576-22.045-14.85-35.387-14.85-9.646 0-19.005 2.761-27.069 7.984-2.95 1.915-6.835 1.429-9.445-1.183-11.451-11.45-27.31-17.582-43.537-16.842-28.824 1.329-52.427 24.347-54.794 52.885h-35.821c-5.523 0-10 4.478-10 10v65.985 32.081c0 66.769 26.366 130.475 68.637 181.566 8.887 10.741 18.436 20.962 28.675 30.427 4.487 4.148 8.293 8.318 8.293 14.872v43.501c0 11.821-8.347 22.15-19.85 24.561-48.777 10.23-49.338 44.602-49.338 46.06 0 5.522 4.477 10 10 10h192.733c5.523 0 10-4.478 10-10 0-1.46-.561-35.881-49.336-46.072-11.503-2.402-19.852-12.73-19.852-24.558v-43.491c0-4.698 2.017-9.202 5.522-12.348l.188-.168c12.183-10.961 35.764-34.404 56.822-68.263 2.917-4.689 1.479-10.856-3.21-13.772s-10.855-1.479-13.773 3.21c-14.37 23.105-31.904 44.515-52.013 62.865-19.515 8.174-41.919 8.141-61.438-.006-21.41-19.53-39.921-42.513-54.769-67.383-24.745-41.445-37.292-85.521-37.292-131.001v-32.081-55.985h25.61v68.219c0 17.954 15.042 33.003 33.002 33.003 17.977 0 33.002-15.028 33.002-33.003v-59.495c0-4.737 3.981-8.725 8.729-8.725h100.087 45.138v55.985 32.081c0 18.637-2.154 37.303-6.402 55.479-.526 2.25-.25 4.643.776 6.713 1.28 2.581 3.661 4.592 6.686 5.299 5.277 1.319 10.79-2.226 12.014-7.462 4.596-19.666 6.926-39.863 6.926-60.03v-32.079-65.985c.001-5.523-4.476-10-9.999-10zm-115.401 331.094c-.135 1.269-.204 2.55-.204 3.837v43.491c0 21.245 15.04 39.807 35.762 44.136 17.066 3.565 25.421 10.562 29.511 16.494h-164.848c4.111-5.933 12.473-12.919 29.473-16.485 20.712-4.341 35.746-22.902 35.746-44.135v-43.501c0-1.294-.069-2.581-.205-3.856 5.729 1.015 11.542 1.538 17.384 1.538 5.878 0 11.68-.512 17.381-1.519zm-39.824-331.094c-15.639-.004-28.733 13.1-28.733 28.724v59.497c0 7.146-6.005 13.027-13.136 12.994-7.215-.074-12.859-6.448-12.859-13.511v-77.704c0-.026-.004-.051-.004-.077v-6.213c.013-.154.023-.309.029-.464.764-19.379 16.532-35.259 35.896-36.152 10.761-.503 20.88 3.413 28.474 11.006 9.348 9.35 23.521 10.92 34.466 3.824 4.814-3.119 10.412-4.768 16.19-4.768 7.961 0 15.48 3.167 21.173 8.919 3.904 3.944 6.584 8.735 7.858 13.925z"/></g></g></svg>