<svg xmlns="http://www.w3.org/2000/svg" viewBox="0 0 447 55">
  <g id="Artboard" fill="none" fill-rule="evenodd">
    <path id="Shape" fill="#FFF" d="M446 56l1-1v1h-1zm-29 0c-5-4-5-4-5-2l-3-2-4-3c-2-2-2-2-1 0l8 7h-2l-3-1-4-2c-2-2-6-3-6-2l1 1 1 1-4-2-5-3c-3-1-16-1-33 2l-15 1 3-1 2-1 14-4c4 0 5-1 3-2h1c4 1 13 0 14-1l5-1c3 0 4 0 3 1l1 1 2-1h1l2 1 3-1h5l3 1 4 3c8 3 16 9 14 9l-1 1h-4zM0 56l7-3 6-2c3-2 4-2 9-2 8 0 13-2 36-11a265 265 0 0 1 27-11 80 80 0 0 1 27-14l11-4a565 565 0 0 0 9 0c-11 3-26 9-24 11l12-3 5-1v2a412 412 0 0 1-7 3c-1 2 5 1 11-2 8-5 8-5 15 1l8 5 5 3 4 3 9-2-4-2-7-6-3-2 4 2c5 4 12 8 15 8l6 2 12 3c11 2 17 4 23 8a85 85 0 0 0 29 14H0zm444-1l-4-2c-2-2-6-3-9-4l-4-1c1-1 8 1 11 3l3 1h1l1 1c2 1 2 2 1 2zm-24-8c-2 0-1-1 2-1l2 1h-4zm-5 0l-1-1h3c1 1 0 1-2 1zm-25 7h-2c-1-1-2-1-1-2l2-1c2 1 2 1 0 1l-2 1h2l1 1zm-8-20v-2c1-1 2 0 1 1l-1 1zm2 16c2 1 2 2-1 2l-2-2h3zm-4 1h-1-1 2zm-50 0c-2-1-1-1 2-1h1l-3 1zm-4 0h-1 1zm-5 1h-2 2zm-8-3h0zm-10 1h-1 1zm6 4zm-26-1h-2 2zm-14 0l-12-2c-16-2-31-9-45-19a217 217 0 0 0-16-11c0-1 9 3 13 6a319 319 0 0 0 15 10c10 6 18 8 36 11a112 112 0 0 1 13 2 1560 1560 0 0 0 21 1l-25 2zM172 9l-4-4-4-3c-1 0-2 0-1-1 2 0 3 0 7 4l2 4zm-14-7h0zm-6 15c-2 0-2 0 0 0h0zm-3 1v-1h1l-1 1zM58 33l-11 2c-4 0 0-2 7-3 6-1 7-1 4 1zm-19 2l2-1c3 0 3 0 0 1h-2zm-10-1c0-1 7-2 9-1l-4 1h-5zm0 7l-4 2 4-3c5-2 5-1 0 1z"/>
  </g>
</svg>