<svg xmlns="http://www.w3.org/2000/svg" viewBox="0 0 267 60">
  <path fill="#FFF" d="M266 0v3l-6-1c-4 0-6 0-8 2l-7 1h-5c0 2 6 4 16 6 5 2 7 2 4 2l-12-1c-6-2-9-2-10-1-2 2-12 2-45 1-31 0-35 0-34 2l3 1-6 1-10 3 19 1 30-2c11-1 20 0 20 2 0 1-7 2-16 2a381 381 0 0 1-69 6c-27 0-40 1-43 2l-6 2h10c7 0 10 1 11 3 0 1 2 2 6 2l5 1c-2 2-6 1 35 5l12 2 11 1h9l6 1h3c-2 2-16 6-24 7l-10 2v2l-9 2-26-1A2020 2020 0 0 0 0 54V34l6 1c4 0 6 1 6 2l1-2c1-1 3-3 5-2 5 0 6 0 5-2h-2l-1-2c0-2-4-2-5 0L5 30H0V0h266zm-27 24c-4 2-8 1-6-1l5-1h5l-4 2zm-24 12h1l1 1-1 1-1-2zm20-28c3 0 3 0 1-1l-8-2-4-1 4 2 7 2zm-98 38c3-1 2-2-1-1l-2 2 3-1zM36 32c2 1 2 1 0-1v-1l1-1-2-1c-2 0-2 3 1 4z"/>
</svg>