<?xml version="1.0" standalone="no"?>
<!DOCTYPE svg PUBLIC "-//W3C//DTD SVG 20010904//EN"
 "http://www.w3.org/TR/2001/REC-SVG-20010904/DTD/svg10.dtd">
<svg version="1.0" xmlns="http://www.w3.org/2000/svg"
 width="676.000000pt" height="676.000000pt" viewBox="0 0 676.000000 676.000000"
 preserveAspectRatio="xMidYMid meet">
<metadata>
Created by potrace 1.11, written by Peter Selinger 2001-2013
</metadata>
<g transform="translate(0.000000,676.000000) scale(0.100000,-0.100000)"
fill="#000000" stroke="none">
<path d="M1891 6735 c-16 -14 -37 -46 -47 -71 -14 -38 -15 -53 -6 -94 21 -92
90 -170 150 -170 38 0 78 49 91 110 23 102 25 154 7 188 -33 65 -138 84 -195
37z m114 -81 c12 -13 15 -29 10 -78 -9 -95 -13 -106 -36 -106 -14 0 -26 13
-39 43 -25 55 -25 98 1 131 24 30 41 33 64 10z"/>
<path d="M1915 6310 c-110 -43 -179 -132 -180 -234 0 -34 3 -73 8 -89 l7 -27
-42 7 c-24 5 -90 8 -148 8 -136 0 -195 -20 -265 -90 -100 -99 -99 -215 3 -307
23 -21 38 -39 34 -41 -4 -3 -27 -8 -52 -12 -189 -29 -298 -110 -308 -229 l-4
-53 -24 24 c-65 65 -195 83 -282 39 -91 -47 -171 -156 -172 -234 0 -90 56
-142 156 -142 151 0 325 96 348 192 l6 26 57 -57 c161 -159 483 -222 738 -146
17 5 23 -1 36 -42 9 -26 19 -55 22 -63 6 -12 -22 -24 -135 -60 -264 -83 -390
-165 -454 -295 -33 -69 -43 -184 -25 -291 12 -67 67 -323 76 -355 4 -12 -9
-20 -57 -33 -105 -29 -215 -93 -301 -175 -85 -81 -165 -194 -193 -272 -18 -49
-18 -49 -63 -49 -89 -1 -163 -55 -216 -160 -30 -60 -75 -228 -75 -282 0 -32
-9 -52 -46 -101 -102 -136 -163 -314 -172 -500 -9 -199 23 -247 211 -317 99
-36 124 -42 166 -37 41 5 52 3 67 -15 54 -59 189 -85 274 -53 25 9 73 21 107
26 72 9 107 26 144 66 71 76 131 260 133 408 1 94 -1 104 -32 167 -29 60 -81
119 -112 130 -8 2 0 25 23 68 34 62 78 195 91 271 4 20 1 60 -5 89 -9 44 -21
63 -65 108 l-54 54 26 31 c56 68 127 115 220 147 49 17 53 17 58 2 183 -634
229 -751 339 -869 96 -102 228 -151 342 -126 l40 9 32 -67 c23 -46 52 -84 95
-125 35 -32 54 -54 43 -50 -11 5 -55 13 -97 19 -167 23 -368 -49 -514 -185
-140 -131 -231 -275 -327 -518 -179 -449 -166 -856 37 -1170 87 -133 225 -250
356 -299 50 -18 85 -24 150 -24 104 -1 161 23 220 91 56 63 76 137 156 575 75
403 73 399 129 329 129 -162 287 -307 388 -359 177 -89 345 -95 490 -16 98 54
225 205 298 356 l23 48 17 -80 c33 -149 110 -272 236 -372 256 -203 602 -236
1138 -107 470 112 908 348 1190 639 115 119 177 201 235 315 173 337 133 711
-100 944 -103 103 -183 142 -300 148 -144 7 -211 -29 -435 -234 -247 -226
-342 -305 -406 -339 -76 -40 -245 -99 -264 -92 -7 3 -15 19 -18 36 -9 44 -69
105 -130 131 -31 14 -81 25 -125 28 -61 4 -72 7 -67 20 3 9 9 84 12 167 l6
150 38 43 c83 95 112 216 86 352 -9 47 -19 95 -23 107 -6 22 -6 22 93 16 393
-24 736 185 923 562 109 219 143 394 143 725 0 118 -3 224 -6 235 -5 16 0 25
24 39 88 52 149 153 157 257 5 80 -14 146 -64 220 l-35 50 44 77 c106 185 143
346 114 488 -34 160 -135 279 -267 315 -38 10 -48 19 -65 53 -33 68 -68 81
-215 81 -129 0 -181 -11 -232 -46 -22 -16 -46 -19 -155 -19 -149 0 -189 -13
-241 -76 -61 -73 -75 -169 -47 -327 l15 -86 -33 -52 c-28 -46 -32 -62 -36
-135 -8 -192 96 -362 274 -450 30 -14 71 -28 92 -31 l38 -5 0 -101 c0 -88 3
-108 24 -147 44 -85 103 -131 187 -144 40 -7 42 -9 48 -53 19 -143 0 -413 -40
-551 -69 -236 -225 -400 -422 -441 -59 -12 -338 -14 -420 -2 -30 4 -58 14 -63
22 -13 22 -75 288 -104 444 -37 208 -103 680 -115 824 -6 69 -9 225 -8 346 l3
220 -28 60 -28 61 20 44 c25 55 27 149 6 210 -38 107 -148 202 -321 274 -184
77 -359 114 -759 161 -272 32 -321 39 -465 71 -151 34 -226 62 -400 149 -80
40 -170 80 -200 89 -74 22 -192 20 -255 -4z m184 -171 c27 -6 123 -47 213 -93
276 -139 424 -176 893 -226 160 -17 333 -37 385 -46 291 -45 514 -132 580
-224 28 -40 43 -94 35 -130 l-6 -29 -52 28 c-93 52 -256 94 -482 127 -200 29
-641 21 -760 -13 -35 -10 3 26 65 61 l55 31 -56 3 c-113 6 -217 -53 -347 -197
-203 -224 -276 -281 -361 -281 -53 0 -116 35 -135 74 -21 45 -20 62 8 121 25
54 67 96 187 193 77 61 113 102 143 159 28 56 17 56 -33 1 -35 -38 -81 -71
-166 -118 -198 -109 -275 -199 -275 -322 0 -32 -4 -58 -9 -58 -5 0 -31 -20
-58 -44 -64 -58 -127 -77 -279 -83 -140 -6 -247 11 -358 57 -113 48 -160 88
-172 150 -10 45 42 90 151 129 101 36 142 56 171 82 13 12 46 22 95 29 41 5
88 14 105 21 28 12 25 13 -53 24 -136 21 -193 46 -219 96 -21 42 -17 82 11
113 59 63 155 76 385 51 253 -28 372 -13 481 60 37 24 99 98 99 116 0 5 -21
-6 -47 -25 -74 -52 -133 -68 -251 -69 -94 0 -104 2 -127 23 -36 34 -51 91 -36
129 17 38 41 60 88 77 47 16 68 17 132 3z m3581 -274 c6 -4 -6 -18 -28 -35
-48 -35 -75 -77 -97 -154 -22 -76 -16 -182 13 -250 12 -27 21 -51 19 -53 -2
-1 -23 -5 -48 -8 -44 -6 -44 -6 -64 37 -14 29 -32 49 -58 63 -35 18 -37 23
-33 55 3 19 8 95 12 168 7 154 15 171 85 183 48 9 182 4 199 -6z m-404 -117
c-3 -46 -8 -125 -12 -175 l-6 -93 -113 0 -114 0 -12 58 c-21 91 -18 191 6 232
27 45 67 59 174 59 l83 1 -6 -82z m575 -54 c15 -7 39 -28 54 -46 23 -27 26
-38 21 -72 -19 -119 -68 -191 -130 -189 -79 2 -123 75 -114 187 11 126 71 169
169 120z m124 -306 c-8 -76 -28 -143 -77 -255 l-40 -93 -48 0 c-80 0 -76 -31
9 -75 133 -67 188 -217 126 -341 -14 -28 -36 -61 -50 -74 -24 -23 -25 -23 -25
-3 0 11 -3 35 -6 52 -6 31 -6 32 20 25 65 -16 3 60 -79 97 -56 26 -156 25
-215 -2 -51 -23 -105 -71 -127 -112 -16 -31 -10 -48 9 -29 21 21 26 13 30 -48
3 -56 2 -59 -17 -54 -36 10 -70 40 -95 85 -22 39 -25 55 -24 139 0 54 7 120
16 153 17 62 11 70 -30 41 -30 -21 -102 -6 -184 38 -103 55 -176 167 -185 283
-6 70 8 112 40 124 12 5 95 12 184 16 l162 8 7 -26 c8 -33 -22 -84 -73 -123
-42 -32 -138 -73 -170 -74 -36 0 -27 -16 16 -28 97 -30 189 -4 270 75 51 49
58 53 104 53 l49 0 -25 -30 c-46 -54 -47 -166 -3 -217 l23 -26 -1 89 c0 58 6
106 17 139 16 46 22 52 70 72 38 17 63 21 93 17 111 -16 195 61 211 193 l7 58
8 -45 c5 -25 6 -71 3 -102z m-5104 -138 c79 -41 89 -121 20 -167 -85 -58 -255
-71 -281 -22 -24 44 40 152 111 187 55 27 99 28 150 2z m1192 -842 c41 -229
78 -465 86 -558 6 -63 13 -131 16 -152 l5 -36 -119 54 c-65 29 -158 65 -207
79 -48 14 -88 26 -89 28 -1 1 -17 56 -35 122 -84 306 -44 385 240 469 47 14
88 25 91 25 4 1 9 -14 12 -31z m2112 -677 c-16 -32 -62 -62 -92 -60 -10 0 -4
5 14 10 37 11 72 51 81 94 5 25 7 26 10 8 2 -12 -4 -35 -13 -52z m-806 -24 c1
-35 -23 -83 -48 -97 -32 -17 -36 -11 -8 10 30 24 48 78 41 124 -3 25 -3 27 5
11 5 -11 10 -33 10 -48z m-1347 -376 c160 -69 168 -73 168 -86 0 -7 5 -69 10
-139 l11 -127 -32 -27 c-44 -37 -112 -82 -124 -82 -6 0 -43 109 -84 243 -41
133 -76 248 -79 255 -7 20 11 15 130 -37z m-1323 -198 c-4 -27 -9 -61 -11 -77
l-3 -28 -28 22 c-33 26 -41 22 -28 -14 18 -47 89 -112 154 -142 78 -36 179
-40 245 -10 51 23 54 36 7 36 -19 0 -35 4 -35 9 0 23 73 181 84 181 18 0 54
-41 61 -71 9 -34 -31 -222 -60 -287 -43 -93 -86 -135 -169 -163 l-51 -18 28
-10 c38 -15 77 -14 125 3 38 14 43 13 74 -7 76 -50 99 -161 63 -306 l-18 -74
-18 48 c-27 70 -62 102 -128 116 -31 7 -58 14 -59 15 -2 1 6 24 17 50 12 26
19 49 16 52 -3 3 -23 -13 -45 -36 -77 -82 -91 -221 -30 -294 l20 -23 -6 63 -7
62 37 0 c56 0 80 -30 73 -91 -7 -58 -25 -95 -68 -137 -87 -85 -209 -60 -263
55 l-27 56 -37 -37 c-47 -45 -74 -46 -180 -6 -113 43 -117 50 -116 174 1 153
45 298 131 428 24 35 27 37 46 23 12 -8 34 -15 49 -15 28 0 28 0 12 25 -28 42
-30 133 -4 216 35 118 87 217 123 240 18 10 33 19 33 19 1 0 -2 -21 -7 -47z
m3537 -1085 c-4 -29 -8 -53 -9 -54 -1 0 -28 -15 -60 -33 -128 -73 -213 -196
-226 -329 l-6 -68 -74 -69 c-44 -42 -71 -62 -68 -50 31 101 57 299 57 435 l0
116 91 17 c50 10 135 32 188 51 53 18 100 34 105 35 5 0 5 -22 2 -51z m-1586
-14 c52 -18 130 -40 173 -49 129 -26 373 -38 547 -28 85 5 157 8 159 6 8 -5
-52 -219 -102 -363 -53 -155 -141 -363 -183 -435 -37 -63 -96 -121 -139 -135
-77 -25 -151 22 -271 177 l-67 85 18 57 c49 156 18 313 -84 424 -21 23 -42 58
-46 77 -12 57 -52 134 -98 186 -27 31 -35 45 -22 39 11 -5 63 -23 115 -41z
m2120 -128 c19 -11 40 -26 47 -35 13 -17 17 -51 7 -51 -3 0 -102 -16 -218 -35
-222 -37 -385 -77 -481 -120 -32 -14 -59 -25 -61 -25 -2 0 5 23 16 52 39 102
166 192 315 223 104 21 329 16 375 -9z m-2252 -146 c69 -30 137 -105 157 -173
16 -54 21 -167 7 -167 -5 0 -31 27 -58 61 -27 34 -65 74 -86 90 -167 133 -379
23 -338 -176 10 -47 37 -101 94 -188 l19 -28 -27 11 c-125 47 -204 173 -193
307 17 222 224 349 425 263z"/>
<path d="M1464 6251 c-45 -27 -64 -59 -64 -107 0 -74 64 -124 159 -124 63 0
111 19 139 55 46 58 18 125 -70 169 -62 31 -121 33 -164 7z m159 -67 c35 -8
52 -37 37 -64 -20 -38 -147 -19 -163 24 -9 23 50 59 83 51 8 -2 27 -7 43 -11z"/>
<path d="M1072 5914 c-20 -9 -90 -18 -165 -23 -137 -8 -176 -19 -225 -65 -36
-32 -52 -70 -52 -122 0 -65 28 -107 96 -140 47 -23 63 -26 122 -22 42 3 84 14
112 28 90 46 221 166 259 237 17 33 13 77 -9 101 -25 26 -86 29 -138 6z m88
-59 c0 -23 -128 -122 -210 -163 -56 -28 -86 -37 -122 -36 -84 1 -117 63 -60
116 34 32 72 45 177 59 46 6 103 17 127 24 58 18 88 18 88 0z"/>
</g>
</svg>
